<svg width="408" height="194" viewBox="0 0 408 194" fill="none" xmlns="http://www.w3.org/2000/svg">
<g clip-path="url(#clip0_147_2)">
<mask id="mask0_147_2" style="mask-type:luminance" maskUnits="userSpaceOnUse" x="0" y="2" width="192" height="192">
<path d="M0 2H192V194H0V2Z" fill="white"/>
</mask>
<g mask="url(#mask0_147_2)">
<path fill-rule="evenodd" clip-rule="evenodd" d="M128.438 106.716C117.659 106.716 108.921 97.9783 108.921 87.1993C108.921 76.4203 117.659 67.6833 128.438 67.6833C139.217 67.6833 147.955 76.4203 147.955 87.1993C147.955 97.9783 139.217 106.716 128.438 106.716ZM44.0456 87.1993C44.0456 76.4203 52.7836 67.6833 63.5626 67.6833C74.3416 67.6833 83.0796 76.4203 83.0796 87.1993C83.0796 97.9783 74.3416 106.716 63.5626 106.716C52.7836 106.716 44.0456 97.9783 44.0456 87.1993ZM147.875 5.50932H44.1256C27.6586 5.50932 14.3096 18.8583 14.3096 35.3253V139.074C14.3096 155.541 27.6586 168.89 44.1256 168.89H50.4086C50.5126 173.314 49.8666 179.529 47.0366 188.16C45.0756 194.141 69.5576 188.921 95.4076 168.89H147.875C164.342 168.89 177.691 155.541 177.691 139.074V35.3253C177.691 18.8583 164.342 5.50932 147.875 5.50932Z" fill="#E3CCA4"/>
</g>
</g>
<path d="M205.389 21.6797L201.346 45H191.707L197.215 13.3008H206.18L205.389 21.6797ZM215.76 13.0371L214.5 22.2363C213.992 22.1582 213.484 22.0898 212.977 22.0312C212.469 21.9727 211.951 21.9336 211.424 21.9141C210.35 21.8945 209.373 22.0215 208.494 22.2949C207.635 22.5488 206.883 22.9492 206.238 23.4961C205.613 24.0234 205.096 24.6875 204.686 25.4883C204.275 26.2891 203.973 27.2168 203.777 28.2715L202.166 27.0996C202.361 25.6152 202.674 24.043 203.104 22.3828C203.553 20.7031 204.178 19.1211 204.979 17.6367C205.779 16.1523 206.814 14.9512 208.084 14.0332C209.354 13.0957 210.916 12.627 212.771 12.627C213.279 12.627 213.777 12.666 214.266 12.7441C214.754 12.8223 215.252 12.9199 215.76 13.0371ZM228.226 45.5859C226.039 45.5469 224.046 45.1465 222.25 44.3848C220.453 43.6035 218.929 42.5293 217.679 41.1621C216.429 39.7949 215.502 38.1934 214.896 36.3574C214.31 34.502 214.095 32.4805 214.252 30.293L214.369 29.1504C214.603 26.8457 215.15 24.6973 216.009 22.7051C216.869 20.6934 218.021 18.9355 219.466 17.4316C220.912 15.9082 222.611 14.7266 224.564 13.8867C226.537 13.0469 228.744 12.6562 231.185 12.7148C233.392 12.7539 235.296 13.1934 236.898 14.0332C238.519 14.873 239.837 16.0156 240.853 17.4609C241.869 18.8867 242.572 20.5273 242.962 22.3828C243.373 24.2188 243.47 26.1719 243.255 28.2422L242.699 32.2559H217.504L218.5 26.0742L234.027 26.1035L234.203 25.2539C234.339 24.3359 234.3 23.5059 234.086 22.7637C233.871 22.0215 233.47 21.4355 232.884 21.0059C232.298 20.5566 231.507 20.3125 230.511 20.2734C229.3 20.2539 228.295 20.5176 227.494 21.0645C226.712 21.6113 226.078 22.334 225.589 23.2324C225.121 24.1309 224.759 25.1074 224.505 26.1621C224.252 27.1973 224.066 28.1934 223.949 29.1504L223.832 30.2637C223.754 31.2207 223.783 32.1484 223.92 33.0469C224.056 33.9453 224.33 34.7559 224.74 35.4785C225.17 36.2012 225.746 36.7871 226.468 37.2363C227.191 37.666 228.099 37.9004 229.193 37.9395C230.658 37.9785 232.025 37.7051 233.295 37.1191C234.564 36.5332 235.707 35.7324 236.722 34.7168L240.736 40.0488C239.857 41.377 238.724 42.4512 237.337 43.2715C235.951 44.0723 234.457 44.6582 232.855 45.0293C231.273 45.4199 229.73 45.6055 228.226 45.5859ZM261.112 37.0312L263.163 23.8477C263.241 23.1445 263.232 22.4707 263.134 21.8262C263.056 21.1816 262.812 20.6543 262.402 20.2441C262.011 19.8145 261.396 19.5898 260.556 19.5703C259.794 19.5508 259.15 19.6875 258.622 19.9805C258.095 20.2734 257.675 20.6836 257.362 21.2109C257.05 21.7383 256.825 22.3438 256.689 23.0273L247.021 23.0859C247.099 21.25 247.587 19.668 248.486 18.3398C249.384 17.0117 250.536 15.9277 251.943 15.0879C253.349 14.248 254.882 13.6328 256.542 13.2422C258.222 12.8516 259.872 12.6758 261.493 12.7148C263.72 12.7539 265.732 13.2227 267.529 14.1211C269.345 15 270.741 16.2793 271.718 17.959C272.714 19.6191 273.095 21.6406 272.861 24.0234L270.78 37.0312C270.605 38.2031 270.448 39.4531 270.312 40.7812C270.175 42.0898 270.37 43.3105 270.898 44.4434L270.868 45L261.464 45.0293C261.034 43.7598 260.82 42.4414 260.82 41.0742C260.82 39.707 260.917 38.3594 261.112 37.0312ZM264.247 25.6348L263.368 30.9082L259.589 30.8789C258.847 30.8984 258.134 31.0254 257.45 31.2598C256.786 31.4746 256.191 31.7871 255.663 32.1973C255.136 32.6074 254.696 33.1152 254.345 33.7207C254.013 34.3262 253.798 35.0195 253.7 35.8008C253.622 36.3281 253.661 36.8066 253.818 37.2363C253.993 37.6465 254.257 37.9785 254.609 38.2324C254.98 38.4863 255.439 38.623 255.986 38.6426C256.825 38.6621 257.636 38.5059 258.417 38.1738C259.198 37.8418 259.872 37.373 260.439 36.7676C261.025 36.1621 261.425 35.459 261.64 34.6582L263.339 38.7891C262.831 39.8047 262.245 40.7324 261.581 41.5723C260.937 42.4121 260.204 43.1445 259.384 43.7695C258.583 44.375 257.685 44.8438 256.689 45.1758C255.693 45.5078 254.589 45.6641 253.378 45.6445C251.64 45.6055 250.038 45.1855 248.573 44.3848C247.109 43.584 245.946 42.4902 245.087 41.1035C244.228 39.7168 243.827 38.1152 243.886 36.2988C243.964 34.1895 244.482 32.4414 245.439 31.0547C246.396 29.668 247.636 28.584 249.159 27.8027C250.702 27.002 252.372 26.4355 254.169 26.1035C255.986 25.7715 257.782 25.6055 259.56 25.6055L264.247 25.6348ZM292.007 0L284.214 45H274.546L282.339 0H292.007ZM209.52 88.918C209.676 88.0977 209.432 87.4727 208.787 87.043C208.162 86.5938 207.41 86.2617 206.531 86.0469C205.672 85.8125 204.979 85.627 204.451 85.4902C203.26 85.1777 202.078 84.7773 200.906 84.2891C199.734 83.7812 198.67 83.1562 197.713 82.4141C196.775 81.6523 196.023 80.7441 195.457 79.6895C194.91 78.6152 194.666 77.3652 194.725 75.9395C194.783 74.1816 195.223 72.6582 196.043 71.3691C196.883 70.0801 197.967 69.0156 199.295 68.1758C200.623 67.3164 202.068 66.6816 203.631 66.2715C205.213 65.8613 206.785 65.6758 208.348 65.7148C210.496 65.7344 212.518 66.1152 214.412 66.8574C216.326 67.5996 217.879 68.7324 219.07 70.2559C220.281 71.7793 220.896 73.7129 220.916 76.0566L211.336 76.0273C211.355 75.2656 211.258 74.6016 211.043 74.0352C210.848 73.4688 210.506 73.0391 210.018 72.7461C209.529 72.4336 208.865 72.2773 208.025 72.2773C207.4 72.2773 206.785 72.4043 206.18 72.6582C205.574 72.9121 205.047 73.2734 204.598 73.7422C204.168 74.2109 203.895 74.7773 203.777 75.4414C203.66 76.0078 203.738 76.4863 204.012 76.877C204.285 77.248 204.656 77.5508 205.125 77.7852C205.594 78.0195 206.082 78.2148 206.59 78.3711C207.117 78.5078 207.586 78.6152 207.996 78.6934C209.773 79.123 211.492 79.6992 213.152 80.4219C214.832 81.125 216.199 82.1309 217.254 83.4395C218.328 84.7285 218.836 86.4473 218.777 88.5957C218.719 90.4121 218.23 91.9648 217.312 93.2539C216.395 94.5234 215.213 95.5586 213.768 96.3594C212.342 97.1406 210.799 97.707 209.139 98.0586C207.498 98.4297 205.906 98.6055 204.363 98.5859C202.215 98.5469 200.184 98.1172 198.27 97.2969C196.355 96.457 194.793 95.2461 193.582 93.6641C192.391 92.0625 191.766 90.0996 191.707 87.7754L200.613 87.8047C200.633 88.7227 200.799 89.4941 201.111 90.1191C201.443 90.7246 201.922 91.1934 202.547 91.5254C203.172 91.8379 203.943 91.9941 204.861 91.9941C205.545 91.9941 206.209 91.8965 206.854 91.7012C207.518 91.4863 208.084 91.1543 208.553 90.7051C209.041 90.2363 209.363 89.6406 209.52 88.918ZM234.994 72.9219L228.519 110.188H218.88L226.498 66.3008H235.433L234.994 72.9219ZM252.279 81.5938L252.191 82.209C251.976 84.123 251.537 86.0566 250.873 88.0098C250.228 89.9629 249.339 91.75 248.207 93.3711C247.093 94.9922 245.707 96.291 244.046 97.2676C242.386 98.2246 240.433 98.6738 238.187 98.6152C236.214 98.5566 234.603 98.0098 233.353 96.9746C232.103 95.9199 231.127 94.5918 230.423 92.9902C229.74 91.3691 229.261 89.6602 228.988 87.8633C228.734 86.0469 228.627 84.3574 228.666 82.7949L228.754 81.9453C229.046 80.2266 229.535 78.4102 230.218 76.4961C230.902 74.582 231.8 72.8047 232.914 71.1641C234.027 69.5039 235.365 68.166 236.927 67.1504C238.49 66.1152 240.306 65.627 242.377 65.6855C244.545 65.7441 246.322 66.2617 247.709 67.2383C249.095 68.1953 250.15 69.4551 250.873 71.0176C251.595 72.5605 252.054 74.2598 252.25 76.1152C252.445 77.9707 252.455 79.7969 252.279 81.5938ZM242.582 82.1797L242.64 81.5645C242.699 80.8613 242.748 80.0508 242.787 79.1328C242.826 78.2148 242.767 77.3164 242.611 76.4375C242.474 75.5586 242.152 74.8262 241.644 74.2402C241.156 73.6348 240.404 73.3125 239.388 73.2734C238.197 73.2148 237.201 73.4004 236.4 73.8301C235.599 74.2598 234.945 74.8555 234.437 75.6172C233.949 76.3789 233.568 77.2383 233.295 78.1953C233.021 79.1328 232.826 80.0996 232.709 81.0957L232.445 83.498C232.308 84.6113 232.279 85.7441 232.357 86.8965C232.435 88.0293 232.767 88.9863 233.353 89.7676C233.959 90.5488 234.974 90.959 236.4 90.998C237.533 91.0176 238.47 90.7441 239.212 90.1777C239.974 89.6113 240.58 88.8691 241.029 87.9512C241.498 87.0332 241.849 86.0664 242.084 85.0508C242.318 84.0156 242.484 83.0586 242.582 82.1797ZM270.487 90.0312L272.538 76.8477C272.616 76.1445 272.607 75.4707 272.509 74.8262C272.431 74.1816 272.187 73.6543 271.777 73.2441C271.386 72.8145 270.771 72.5898 269.931 72.5703C269.169 72.5508 268.525 72.6875 267.997 72.9805C267.47 73.2734 267.05 73.6836 266.737 74.2109C266.425 74.7383 266.2 75.3438 266.064 76.0273L256.396 76.0859C256.474 74.25 256.962 72.668 257.861 71.3398C258.759 70.0117 259.911 68.9277 261.318 68.0879C262.724 67.248 264.257 66.6328 265.917 66.2422C267.597 65.8516 269.247 65.6758 270.868 65.7148C273.095 65.7539 275.107 66.2227 276.904 67.1211C278.72 68 280.116 69.2793 281.093 70.959C282.089 72.6191 282.47 74.6406 282.236 77.0234L280.155 90.0312C279.98 91.2031 279.823 92.4531 279.687 93.7812C279.55 95.0898 279.745 96.3105 280.273 97.4434L280.243 98L270.839 98.0293C270.409 96.7598 270.195 95.4414 270.195 94.0742C270.195 92.707 270.292 91.3594 270.487 90.0312ZM273.622 78.6348L272.743 83.9082L268.964 83.8789C268.222 83.8984 267.509 84.0254 266.825 84.2598C266.161 84.4746 265.566 84.7871 265.038 85.1973C264.511 85.6074 264.071 86.1152 263.72 86.7207C263.388 87.3262 263.173 88.0195 263.075 88.8008C262.997 89.3281 263.036 89.8066 263.193 90.2363C263.368 90.6465 263.632 90.9785 263.984 91.2324C264.355 91.4863 264.814 91.623 265.361 91.6426C266.2 91.6621 267.011 91.5059 267.792 91.1738C268.573 90.8418 269.247 90.373 269.814 89.7676C270.4 89.1621 270.8 88.459 271.015 87.6582L272.714 91.7891C272.206 92.8047 271.62 93.7324 270.956 94.5723C270.312 95.4121 269.579 96.1445 268.759 96.7695C267.958 97.375 267.06 97.8438 266.064 98.1758C265.068 98.5078 263.964 98.6641 262.753 98.6445C261.015 98.6055 259.413 98.1855 257.948 97.3848C256.484 96.584 255.321 95.4902 254.462 94.1035C253.603 92.7168 253.202 91.1152 253.261 89.2988C253.339 87.1895 253.857 85.4414 254.814 84.0547C255.771 82.668 257.011 81.584 258.534 80.8027C260.077 80.002 261.747 79.4355 263.544 79.1035C265.361 78.7715 267.157 78.6055 268.935 78.6055L273.622 78.6348ZM297.104 73.5957L292.856 98H283.218L288.725 66.3008H297.72L297.104 73.5957ZM294.702 81.0664L292.71 81.1836C292.886 79.2891 293.276 77.4141 293.882 75.5586C294.487 73.6836 295.327 71.9941 296.401 70.4902C297.495 68.9863 298.843 67.8047 300.444 66.9453C302.065 66.0664 303.97 65.6465 306.157 65.6855C307.934 65.7441 309.389 66.125 310.522 66.8281C311.675 67.5312 312.554 68.4688 313.159 69.6406C313.764 70.793 314.145 72.1016 314.302 73.5664C314.477 75.0117 314.487 76.5059 314.331 78.0488L310.991 98H301.294L304.663 77.9609C304.761 77.043 304.731 76.2324 304.575 75.5293C304.438 74.8262 304.106 74.2793 303.579 73.8887C303.071 73.498 302.309 73.293 301.294 73.2734C300.161 73.2539 299.204 73.4688 298.423 73.918C297.661 74.3672 297.026 74.9824 296.518 75.7637C296.03 76.5254 295.639 77.375 295.346 78.3125C295.073 79.2305 294.858 80.1484 294.702 81.0664ZM331.338 66.3008L325.86 98H316.192L321.7 66.3008H331.338ZM322.549 58.3027C322.51 56.7793 323.018 55.5684 324.073 54.6699C325.147 53.7715 326.407 53.3125 327.852 53.293C329.239 53.2734 330.469 53.6836 331.543 54.5234C332.618 55.3438 333.164 56.4863 333.184 57.9512C333.223 59.4746 332.705 60.6855 331.631 61.584C330.577 62.4824 329.327 62.9414 327.881 62.9609C326.495 62.9805 325.264 62.5801 324.19 61.7598C323.135 60.9199 322.588 59.7676 322.549 58.3027ZM348.961 88.918C349.117 88.0977 348.873 87.4727 348.229 87.043C347.604 86.5938 346.852 86.2617 345.973 86.0469C345.113 85.8125 344.42 85.627 343.893 85.4902C342.701 85.1777 341.52 84.7773 340.348 84.2891C339.176 83.7812 338.111 83.1562 337.154 82.4141C336.217 81.6523 335.465 80.7441 334.898 79.6895C334.352 78.6152 334.107 77.3652 334.166 75.9395C334.225 74.1816 334.664 72.6582 335.484 71.3691C336.324 70.0801 337.408 69.0156 338.736 68.1758C340.064 67.3164 341.51 66.6816 343.072 66.2715C344.654 65.8613 346.227 65.6758 347.789 65.7148C349.938 65.7344 351.959 66.1152 353.854 66.8574C355.768 67.5996 357.32 68.7324 358.512 70.2559C359.723 71.7793 360.338 73.7129 360.357 76.0566L350.777 76.0273C350.797 75.2656 350.699 74.6016 350.484 74.0352C350.289 73.4688 349.947 73.0391 349.459 72.7461C348.971 72.4336 348.307 72.2773 347.467 72.2773C346.842 72.2773 346.227 72.4043 345.621 72.6582C345.016 72.9121 344.488 73.2734 344.039 73.7422C343.609 74.2109 343.336 74.7773 343.219 75.4414C343.102 76.0078 343.18 76.4863 343.453 76.877C343.727 77.248 344.098 77.5508 344.566 77.7852C345.035 78.0195 345.523 78.2148 346.031 78.3711C346.559 78.5078 347.027 78.6152 347.438 78.6934C349.215 79.123 350.934 79.6992 352.594 80.4219C354.273 81.125 355.641 82.1309 356.695 83.4395C357.77 84.7285 358.277 86.4473 358.219 88.5957C358.16 90.4121 357.672 91.9648 356.754 93.2539C355.836 94.5234 354.654 95.5586 353.209 96.3594C351.783 97.1406 350.24 97.707 348.58 98.0586C346.939 98.4297 345.348 98.6055 343.805 98.5859C341.656 98.5469 339.625 98.1172 337.711 97.2969C335.797 96.457 334.234 95.2461 333.023 93.6641C331.832 92.0625 331.207 90.0996 331.148 87.7754L340.055 87.8047C340.074 88.7227 340.24 89.4941 340.553 90.1191C340.885 90.7246 341.363 91.1934 341.988 91.5254C342.613 91.8379 343.385 91.9941 344.303 91.9941C344.986 91.9941 345.65 91.8965 346.295 91.7012C346.959 91.4863 347.525 91.1543 347.994 90.7051C348.482 90.2363 348.805 89.6406 348.961 88.918ZM377.599 53L369.777 98H360.138L367.961 53H377.599ZM371.623 81.0664L369.513 81.1543C369.689 79.3965 370.07 77.5996 370.656 75.7637C371.261 73.9277 372.082 72.2383 373.117 70.6953C374.171 69.1523 375.47 67.9219 377.013 67.0039C378.556 66.0664 380.373 65.627 382.462 65.6855C384.298 65.7246 385.812 66.0957 387.004 66.7988C388.214 67.502 389.152 68.4492 389.816 69.6406C390.5 70.8125 390.949 72.1504 391.164 73.6543C391.379 75.1387 391.398 76.6914 391.222 78.3125L387.941 98H378.244L381.584 78.2246C381.681 77.2871 381.662 76.457 381.525 75.7344C381.388 74.9922 381.056 74.4062 380.529 73.9766C380.021 73.5273 379.25 73.293 378.214 73.2734C377.043 73.2539 376.066 73.459 375.285 73.8887C374.504 74.3184 373.869 74.9141 373.38 75.6758C372.892 76.418 372.511 77.2578 372.238 78.1953C371.984 79.1328 371.779 80.0898 371.623 81.0664ZM209.52 141.918C209.676 141.098 209.432 140.473 208.787 140.043C208.162 139.594 207.41 139.262 206.531 139.047C205.672 138.812 204.979 138.627 204.451 138.49C203.26 138.178 202.078 137.777 200.906 137.289C199.734 136.781 198.67 136.156 197.713 135.414C196.775 134.652 196.023 133.744 195.457 132.689C194.91 131.615 194.666 130.365 194.725 128.939C194.783 127.182 195.223 125.658 196.043 124.369C196.883 123.08 197.967 122.016 199.295 121.176C200.623 120.316 202.068 119.682 203.631 119.271C205.213 118.861 206.785 118.676 208.348 118.715C210.496 118.734 212.518 119.115 214.412 119.857C216.326 120.6 217.879 121.732 219.07 123.256C220.281 124.779 220.896 126.713 220.916 129.057L211.336 129.027C211.355 128.266 211.258 127.602 211.043 127.035C210.848 126.469 210.506 126.039 210.018 125.746C209.529 125.434 208.865 125.277 208.025 125.277C207.4 125.277 206.785 125.404 206.18 125.658C205.574 125.912 205.047 126.273 204.598 126.742C204.168 127.211 203.895 127.777 203.777 128.441C203.66 129.008 203.738 129.486 204.012 129.877C204.285 130.248 204.656 130.551 205.125 130.785C205.594 131.02 206.082 131.215 206.59 131.371C207.117 131.508 207.586 131.615 207.996 131.693C209.773 132.123 211.492 132.699 213.152 133.422C214.832 134.125 216.199 135.131 217.254 136.439C218.328 137.729 218.836 139.447 218.777 141.596C218.719 143.412 218.23 144.965 217.312 146.254C216.395 147.523 215.213 148.559 213.768 149.359C212.342 150.141 210.799 150.707 209.139 151.059C207.498 151.43 205.906 151.605 204.363 151.586C202.215 151.547 200.184 151.117 198.27 150.297C196.355 149.457 194.793 148.246 193.582 146.664C192.391 145.062 191.766 143.1 191.707 140.775L200.613 140.805C200.633 141.723 200.799 142.494 201.111 143.119C201.443 143.725 201.922 144.193 202.547 144.525C203.172 144.838 203.943 144.994 204.861 144.994C205.545 144.994 206.209 144.896 206.854 144.701C207.518 144.486 208.084 144.154 208.553 143.705C209.041 143.236 209.363 142.641 209.52 141.918ZM242.67 119.301L241.468 126.156H222.894L224.095 119.301H242.67ZM229.339 111.42H238.978L233.939 140.717C233.861 141.4 233.861 141.967 233.939 142.416C234.017 142.846 234.222 143.178 234.554 143.412C234.906 143.627 235.443 143.754 236.166 143.793C236.576 143.812 236.986 143.803 237.396 143.764C237.806 143.725 238.216 143.686 238.627 143.646L237.953 150.795C237.113 151.068 236.254 151.264 235.375 151.381C234.515 151.498 233.636 151.557 232.738 151.557C230.746 151.518 229.076 151.117 227.728 150.355C226.4 149.574 225.433 148.471 224.828 147.045C224.242 145.6 224.037 143.881 224.212 141.889L229.339 111.42ZM241.044 135.648L241.103 135.033C241.357 132.748 241.913 130.609 242.773 128.617C243.632 126.625 244.775 124.877 246.2 123.373C247.646 121.869 249.345 120.707 251.298 119.887C253.251 119.047 255.439 118.656 257.861 118.715C260.185 118.754 262.196 119.203 263.896 120.062C265.595 120.922 266.991 122.094 268.085 123.578C269.179 125.043 269.95 126.742 270.4 128.676C270.868 130.59 271.005 132.631 270.81 134.799L270.751 135.443C270.497 137.709 269.931 139.828 269.052 141.801C268.173 143.773 267.011 145.502 265.566 146.986C264.14 148.471 262.45 149.623 260.497 150.443C258.544 151.264 256.366 151.645 253.964 151.586C251.679 151.547 249.677 151.107 247.958 150.268C246.259 149.408 244.862 148.256 243.769 146.811C242.675 145.346 241.894 143.666 241.425 141.771C240.976 139.857 240.849 137.816 241.044 135.648ZM250.741 135.033L250.683 135.648C250.624 136.449 250.585 137.328 250.566 138.285C250.566 139.223 250.673 140.131 250.888 141.01C251.103 141.869 251.493 142.582 252.06 143.148C252.646 143.695 253.486 143.988 254.579 144.027C255.751 144.066 256.728 143.822 257.509 143.295C258.31 142.768 258.954 142.064 259.443 141.186C259.931 140.307 260.302 139.359 260.556 138.344C260.829 137.328 261.015 136.352 261.112 135.414L261.171 134.799C261.23 134.018 261.259 133.148 261.259 132.191C261.279 131.215 261.181 130.287 260.966 129.408C260.751 128.529 260.351 127.807 259.765 127.24C259.179 126.654 258.339 126.342 257.245 126.303C256.073 126.264 255.087 126.518 254.286 127.064C253.505 127.611 252.87 128.334 252.382 129.232C251.894 130.111 251.523 131.068 251.269 132.104C251.015 133.119 250.839 134.096 250.741 135.033ZM285.327 127.68L281.284 151H271.645L277.153 119.301H286.118L285.327 127.68ZM295.698 119.037L294.438 128.236C293.93 128.158 293.423 128.09 292.915 128.031C292.407 127.973 291.889 127.934 291.362 127.914C290.288 127.895 289.311 128.021 288.432 128.295C287.573 128.549 286.821 128.949 286.177 129.496C285.552 130.023 285.034 130.688 284.624 131.488C284.214 132.289 283.911 133.217 283.716 134.271L282.104 133.1C282.3 131.615 282.612 130.043 283.042 128.383C283.491 126.703 284.116 125.121 284.917 123.637C285.718 122.152 286.753 120.951 288.022 120.033C289.292 119.096 290.854 118.627 292.71 118.627C293.218 118.627 293.716 118.666 294.204 118.744C294.692 118.822 295.19 118.92 295.698 119.037ZM308.721 119.301L303.243 151H293.575L299.082 119.301H308.721ZM299.932 111.303C299.893 109.779 300.401 108.568 301.455 107.67C302.53 106.771 303.789 106.312 305.235 106.293C306.621 106.273 307.852 106.684 308.926 107.523C310 108.344 310.547 109.486 310.567 110.951C310.606 112.475 310.088 113.686 309.014 114.584C307.959 115.482 306.709 115.941 305.264 115.961C303.877 115.98 302.647 115.58 301.573 114.76C300.518 113.92 299.971 112.768 299.932 111.303ZM324.146 151.586C321.959 151.547 319.967 151.146 318.17 150.385C316.373 149.604 314.85 148.529 313.6 147.162C312.35 145.795 311.422 144.193 310.816 142.357C310.23 140.502 310.016 138.48 310.172 136.293L310.289 135.15C310.523 132.846 311.07 130.697 311.93 128.705C312.789 126.693 313.941 124.936 315.387 123.432C316.832 121.908 318.531 120.727 320.484 119.887C322.457 119.047 324.664 118.656 327.105 118.715C329.312 118.754 331.217 119.193 332.818 120.033C334.439 120.873 335.758 122.016 336.773 123.461C337.789 124.887 338.492 126.527 338.883 128.383C339.293 130.219 339.391 132.172 339.176 134.242L338.619 138.256H313.424L314.42 132.074L329.947 132.104L330.123 131.254C330.26 130.336 330.221 129.506 330.006 128.764C329.791 128.021 329.391 127.436 328.805 127.006C328.219 126.557 327.428 126.312 326.432 126.273C325.221 126.254 324.215 126.518 323.414 127.064C322.633 127.611 321.998 128.334 321.51 129.232C321.041 130.131 320.68 131.107 320.426 132.162C320.172 133.197 319.986 134.193 319.869 135.15L319.752 136.264C319.674 137.221 319.703 138.148 319.84 139.047C319.977 139.945 320.25 140.756 320.66 141.479C321.09 142.201 321.666 142.787 322.389 143.236C323.111 143.666 324.02 143.9 325.113 143.939C326.578 143.979 327.945 143.705 329.215 143.119C330.484 142.533 331.627 141.732 332.643 140.717L336.656 146.049C335.777 147.377 334.645 148.451 333.258 149.271C331.871 150.072 330.377 150.658 328.775 151.029C327.193 151.42 325.65 151.605 324.146 151.586ZM357.502 141.918C357.658 141.098 357.414 140.473 356.769 140.043C356.144 139.594 355.392 139.262 354.513 139.047C353.654 138.812 352.961 138.627 352.433 138.49C351.242 138.178 350.06 137.777 348.888 137.289C347.716 136.781 346.652 136.156 345.695 135.414C344.757 134.652 344.005 133.744 343.439 132.689C342.892 131.615 342.648 130.365 342.707 128.939C342.765 127.182 343.205 125.658 344.025 124.369C344.865 123.08 345.949 122.016 347.277 121.176C348.605 120.316 350.05 119.682 351.613 119.271C353.195 118.861 354.767 118.676 356.33 118.715C358.478 118.734 360.5 119.115 362.394 119.857C364.308 120.6 365.861 121.732 367.052 123.256C368.263 124.779 368.879 126.713 368.898 129.057L359.318 129.027C359.337 128.266 359.24 127.602 359.025 127.035C358.83 126.469 358.488 126.039 358 125.746C357.511 125.434 356.847 125.277 356.007 125.277C355.382 125.277 354.767 125.404 354.162 125.658C353.556 125.912 353.029 126.273 352.58 126.742C352.15 127.211 351.877 127.777 351.759 128.441C351.642 129.008 351.72 129.486 351.994 129.877C352.267 130.248 352.638 130.551 353.107 130.785C353.576 131.02 354.064 131.215 354.572 131.371C355.099 131.508 355.568 131.615 355.978 131.693C357.755 132.123 359.474 132.699 361.134 133.422C362.814 134.125 364.181 135.131 365.236 136.439C366.31 137.729 366.818 139.447 366.759 141.596C366.701 143.412 366.212 144.965 365.295 146.254C364.377 147.523 363.195 148.559 361.75 149.359C360.324 150.141 358.781 150.707 357.121 151.059C355.48 151.43 353.888 151.605 352.345 151.586C350.197 151.547 348.166 151.117 346.252 150.297C344.337 149.457 342.775 148.246 341.564 146.664C340.373 145.062 339.748 143.1 339.689 140.775L348.595 140.805C348.615 141.723 348.781 142.494 349.093 143.119C349.425 143.725 349.904 144.193 350.529 144.525C351.154 144.838 351.925 144.994 352.843 144.994C353.527 144.994 354.191 144.896 354.836 144.701C355.5 144.486 356.066 144.154 356.535 143.705C357.023 143.236 357.345 142.641 357.502 141.918Z" fill="#E3CCA4"/>
<defs>
<clipPath id="clip0_147_2">
<rect width="192" height="192" fill="white" transform="translate(0 2)"/>
</clipPath>
</defs>
</svg>
